<svg width="159" height="33" viewBox="0 0 159 33" fill="none" xmlns="http://www.w3.org/2000/svg">
<path d="M0 0H29C31.7614 0 34 2.23858 34 5V28C34 30.7614 31.7614 33 29 33H0V0Z" fill="#E33327"/>
<path d="M12.674 8.05133C8.95036 7.46328 6.21136 12.0399 7.20562 16.0285C8.50412 21.2376 16.8995 25.7507 16.8995 25.7507C16.8995 25.7507 24.7136 21.0561 26.5934 16.0285C28.0848 12.0399 25.2577 7.60208 21.6222 8.05133C18.732 8.40848 17.1481 11.0428 17.1481 11.0428C17.1481 11.0428 15.5506 8.50562 12.674 8.05133Z" fill="white"/>
<mask id="mask0" style="mask-type:alpha" maskUnits="userSpaceOnUse" x="7" y="8" width="20" height="18">
<path d="M12.674 8.05133C8.95036 7.46328 6.21136 12.0399 7.20562 16.0285C8.50412 21.2376 16.8995 25.7507 16.8995 25.7507C16.8995 25.7507 24.7136 21.0561 26.5934 16.0285C28.0848 12.0399 25.2577 7.60208 21.6222 8.05133C18.732 8.40848 17.1481 11.0428 17.1481 11.0428C17.1481 11.0428 15.5506 8.50562 12.674 8.05133Z" fill="white"/>
</mask>
<g mask="url(#mask0)">
<rect x="24" y="2" width="10" height="29" fill="#E33327"/>
</g>
<path d="M45 22V11H52.5909V13.6923H48.4811V15.7385H51.7935V18.3077H48.4811V22H45Z" fill="black"/>
<path d="M53.8171 22V11H61.6074V13.6769H57.2829V15.2308H60.718V17.6769H57.2829V19.3231H61.8528V22H53.8171Z" fill="black"/>
<path d="M63.1734 22V11H67.682L69.5375 16.3385L71.4238 11H75.8403V22H72.3899V15.5077L69.8902 22H68.7248L66.2711 15.5077V22H63.1734Z" fill="black"/>
<path d="M76.8525 22L80.303 11H84.7962L88.2313 22H84.5508L84.0448 20.1692H80.579L80.0883 22H76.8525ZM82.3272 13.8154L81.2384 17.8H83.4007L82.3272 13.8154Z" fill="black"/>
<path d="M89.2091 22V11H92.6902V19.3077H96.6774V22H89.2091Z" fill="black"/>
<path d="M97.9813 22V11H105.772V13.6769H101.447V15.2308H104.882V17.6769H101.447V19.3231H106.017V22H97.9813Z" fill="black"/>
<path d="M111.833 22L115.283 11H119.777L123.212 22H119.531L119.025 20.1692H115.559L115.069 22H111.833ZM117.308 13.8154L116.219 17.8H118.381L117.308 13.8154Z" fill="black"/>
<path d="M124.19 22V11H128.667C130.181 11 131.32 11.3026 132.087 11.9077C132.864 12.5026 133.253 13.3897 133.253 14.5692V14.6308C133.253 15.9846 132.634 16.9436 131.397 17.5077L133.897 22H130.247L128.207 18.2308H127.655V22H124.19ZM127.655 15.9846H128.468C129.419 15.9846 129.894 15.5846 129.894 14.7846V14.7231C129.894 14.3333 129.777 14.0513 129.542 13.8769C129.317 13.7026 128.964 13.6154 128.483 13.6154H127.655V15.9846Z" fill="black"/>
<path d="M134.924 22V11H139.432L141.288 16.3385L143.174 11H147.59V22H144.14V15.5077L141.64 22H140.475L138.021 15.5077V22H134.924Z" fill="black"/>
<path d="M152.099 22V17.3077L148.541 11H152.314L153.985 14.4462L155.672 11H159L155.596 17.2923V22H152.099Z" fill="black"/>
</svg>
